<svg xmlns="http://www.w3.org/2000/svg" width="405.59999999999997" height="102.97752313808112"
    viewBox="0 0 338.73022905423494 86"
    class="looka-1j8o68f">
    <defs id="SvgjsDefs7246"></defs>
    <g id="SvgjsG7427" featurekey="mlRtrp-0"
        transform="matrix(0.635,0,0,0.7447271747780967,81.2,73.000091277345)"
        fill="#ea5455">
        <path
            d="M9.404297 12.548828 c1.591797 0.439453 2.65625 1.484375 2.65625 3.496094 c0 2.382813 -1.445312 3.955078 -4.423828 3.955078 l-5.810547 0 l0 -14.111328 l4.570313 0 c3.046875 0 4.648438 1.464844 4.648438 3.867188 c0 1.240234 -0.537109 2.255859 -1.640625 2.792969 z M6.425781 8.320313 l-1.777344 0 l0 3.320313 l1.904297 0 c1.25 0 1.796875 -0.742187 1.796875 -1.699219 c0 -0.9375 -0.615234 -1.621094 -1.923828 -1.621094 z M7.089844 17.490234 c1.582031 0 2.128906 -0.849609 2.128906 -1.767578 c0 -0.9375 -0.537109 -1.826172 -2.1875 -1.826172 l-2.382812 0 l0 3.59375 l2.441406 0 z M24.523926 20 l-3.671875 -6.210937 l-0.849609 0 l0 6.210938 l-2.929687 0 l0 -14.111328 l5.117188 0 c3.193359 0 4.541016 1.884766 4.541016 4.21875 c0 1.894531 -1.074219 3.125 -2.988281 3.535156 l4.248047 6.357422 l-3.466797 0 z M20.002441 8.320313 l0 3.369141 l1.728516 0 c1.5625 0 2.197266 -0.664062 2.197266 -1.679687 c0 -1.005859 -0.634766 -1.689453 -2.197266 -1.689453 l-1.728516 0 z M32.543945 20 l0 -14.111328 l2.929688 0 l0 14.111328 l-2.929687 0 z M51.159668 5.888672 l2.919922 0 l0 14.111328 l-3.388672 0 l-6.25 -10.087891 l0 10.087891 l-2.919922 0 l0 -14.111328 l3.349609 0 l6.289063 10.029297 l0 -10.029297 z M66.240235 20.195313 c-4.072266 0 -7.070312 -2.8125 -7.070312 -7.216797 c0 -4.462891 3.066406 -7.285156 7.216797 -7.285156 c2.724609 0 4.980469 1.201172 6.210938 3.320313 l-2.568359 1.367188 c-0.742187 -1.445312 -2.070312 -2.138672 -3.642578 -2.138672 c-2.441406 0 -4.277344 1.679688 -4.277344 4.667969 c0 2.880859 1.71875 4.736328 4.384766 4.736328 c1.806641 0 3.466797 -0.898437 3.867188 -2.958984 l-3.857422 0 l0 -2.353516 l6.630859 0 l0 7.666016 l-2.304687 0 l0 -1.953125 c-0.908203 1.337891 -2.431641 2.148438 -4.589844 2.148438 z M78.57666 20 l0 -14.111328 l2.929688 0 l0 14.111328 l-2.929687 0 z M97.192383 5.888672 l2.919922 0 l0 14.111328 l-3.388672 0 l-6.25 -10.087891 l0 10.087891 l-2.919922 0 l0 -14.111328 l3.349609 0 l6.289063 10.029297 l0 -10.029297 z M112.27295 20.195313 c-4.072266 0 -7.070312 -2.8125 -7.070312 -7.216797 c0 -4.462891 3.066406 -7.285156 7.216797 -7.285156 c2.724609 0 4.980469 1.201172 6.210938 3.320313 l-2.568359 1.367188 c-0.742187 -1.445312 -2.070312 -2.138672 -3.642578 -2.138672 c-2.441406 0 -4.277344 1.679688 -4.277344 4.667969 c0 2.880859 1.71875 4.736328 4.384766 4.736328 c1.806641 0 3.466797 -0.898437 3.867188 -2.958984 l-3.857422 0 l0 -2.353516 l6.630859 0 l0 7.666016 l-2.304687 0 l0 -1.953125 c-0.908203 1.337891 -2.431641 2.148438 -4.589844 2.148438 z M142.79541 5.888672 l-4.638672 7.353516 l0 6.757813 l-2.939453 0 l0 -6.689453 l-4.667969 -7.421875 l3.242188 0 l2.880859 4.804688 l2.890625 -4.804687 l3.232422 0 z M153.432617 20.195313 c-4.150391 0 -7.216797 -2.832031 -7.216797 -7.255859 c0 -4.433594 3.066406 -7.246094 7.216797 -7.246094 c4.140625 0 7.207031 2.8125 7.207031 7.246094 c0 4.423828 -3.066406 7.255859 -7.207031 7.255859 z M153.432617 17.509766 c2.431641 0 4.296875 -1.708984 4.296875 -4.570312 c0 -2.851562 -1.865234 -4.550781 -4.296875 -4.550781 s-4.296875 1.699219 -4.296875 4.550781 c0 2.861328 1.865234 4.570313 4.296875 4.570313 z M170.964355 20.195313 c-3.095703 0 -5.517578 -1.582031 -5.517578 -5.136719 l0 -9.169922 l2.929688 0 l0 8.769531 c0 2.148438 1.142578 2.949219 2.587891 2.949219 c1.455078 0 2.607422 -0.810547 2.607422 -2.949219 l0 -8.769531 l2.929688 0 l0 9.169922 c0 3.554688 -2.431641 5.136719 -5.537109 5.136719 z M189.716797 20 l-3.671875 -6.210937 l-0.849609 0 l0 6.210938 l-2.929687 0 l0 -14.111328 l5.117188 0 c3.193359 0 4.541016 1.884766 4.541016 4.21875 c0 1.894531 -1.074219 3.125 -2.988281 3.535156 l4.248047 6.357422 l-3.466797 0 z M185.195312 8.320313 l0 3.369141 l1.728516 0 c1.5625 0 2.197266 -0.664062 2.197266 -1.679687 c0 -1.005859 -0.634766 -1.689453 -2.197266 -1.689453 l-1.728516 0 z M205.336914 20 l0 -14.111328 l2.929688 0 l0 14.111328 l-2.929687 0 z M214.313965 20 l0 -14.111328 l5.107422 0 c4.501953 0 6.728516 2.832031 6.728516 7.050781 c0 4.228516 -2.226562 7.060547 -6.728516 7.060547 l-5.107422 0 z M217.243652 17.412109 l2.03125 0 c2.597656 0 3.789063 -1.621094 3.789063 -4.472656 s-1.191406 -4.472656 -3.789062 -4.472656 l-2.03125 0 l0 8.945313 z M239.482422 8.466797 l-5.234375 0 l0 3.203125 l4.638672 0 l0 2.548828 l-4.638672 0 l0 3.193359 l5.234375 0 l0 2.587891 l-8.183594 0 l0 -14.111328 l8.183594 0 l0 2.578125 z M254.348144 20 l-1.025391 -2.910156 l-5.927734 0 l-1.025391 2.910156 l-2.998047 0 l5.195313 -14.111328 l3.583984 0 l5.195313 14.111328 l-2.998047 0 z M248.254394 14.638672 l4.208984 0 l-2.099609 -5.986328 z M277.653809 5.888672 l0 2.578125 l-3.349609 0 l0 11.533203 l-2.900391 0 l0 -11.533203 l-3.369141 0 l0 -2.578125 l9.619141 0 z M288.525391 20.195313 c-4.150391 0 -7.216797 -2.832031 -7.216797 -7.255859 c0 -4.433594 3.066406 -7.246094 7.216797 -7.246094 c4.140625 0 7.207031 2.8125 7.207031 7.246094 c0 4.423828 -3.066406 7.255859 -7.207031 7.255859 z M288.525391 17.509766 c2.431641 0 4.296875 -1.708984 4.296875 -4.570312 c0 -2.851562 -1.865234 -4.550781 -4.296875 -4.550781 s-4.296875 1.699219 -4.296875 4.550781 c0 2.861328 1.865234 4.570313 4.296875 4.570313 z M311.362304 17.412109 l4.423828 0 l0 2.587891 l-7.353516 0 l0 -14.111328 l2.929688 0 l0 11.523438 z M320.427246 20 l0 -14.111328 l2.929688 0 l0 14.111328 l-2.929687 0 z M337.724609 8.466797 l-5.371094 0 l0 3.203125 l4.638672 0 l0 2.548828 l-4.638672 0 l0 5.78125 l-2.949219 0 l0 -14.111328 l8.320313 0 l0 2.578125 z M350.812989 8.466797 l-5.234375 0 l0 3.203125 l4.638672 0 l0 2.548828 l-4.638672 0 l0 3.193359 l5.234375 0 l0 2.587891 l-8.183594 0 l0 -14.111328 l8.183594 0 l0 2.578125 z"></path>
    </g>
    <g id="SvgjsG7248" featurekey="nameLeftFeature-0"
        transform="matrix(2.8616847981000504,0,0,2.8616847981000504,-2.8616847981000504,-0.23370278478924433)"
        fill="#ea5455">
        <path
            d="M1.26 20 c-0.14 0 -0.26 -0.12 -0.26 -0.26 l0 -11.98 c0 -0.14 0.12 -0.26 0.26 -0.26 l4.78 0 c1.32 0 2.2 0.28 2.98 0.86 c1.08 0.78 1.52 2.26 1.02 3.52 c-0.26 0.64 -0.7 0.98 -1.3 1.3 c0.86 0.12 1.4 0.68 1.72 1.08 c0.46 0.6 0.7 1.32 0.7 2.16 c0 1.1 -0.44 2 -1.28 2.64 c-0.82 0.62 -1.94 0.94 -3.32 0.94 l-5.3 0 z M3.94 12.08 l1.96 0 c0.4 0 0.72 -0.08 0.94 -0.26 c0.2 -0.18 0.3 -0.42 0.3 -0.74 c0 -0.3 -0.1 -0.54 -0.3 -0.7 c-0.2 -0.18 -0.5 -0.26 -0.86 -0.26 l-2.04 0 l0 1.96 z M3.94 17.54 l2.34 0 c0.6 0 1.06 -0.12 1.4 -0.36 c0.3 -0.22 0.46 -0.52 0.46 -0.94 c0 -0.38 -0.16 -0.66 -0.46 -0.88 c-0.32 -0.22 -0.76 -0.34 -1.32 -0.34 l-2.42 0 l0 2.52 z M13.42 20 c-0.16 0 -0.26 -0.12 -0.26 -0.26 l0 -11.98 c0 -0.14 0.1 -0.26 0.26 -0.26 l4.88 0 c1.52 0 2.72 0.38 3.56 1.16 c1.24 1.12 1.66 3.24 1.06 4.8 c-0.22 0.56 -0.6 1.08 -1.08 1.46 c-0.28 0.22 -0.58 0.38 -0.88 0.54 c0.86 1.36 2.16 4.12 2.16 4.12 c0.02 0.04 0.06 0.1 0.06 0.16 c0 0.14 -0.12 0.26 -0.26 0.26 l-2.96 0 c-0.08 0 -0.18 -0.06 -0.22 -0.14 l-1.74 -3.82 c-0.62 0.04 -1.1 0.02 -1.74 0.02 l0 3.68 c0 0.14 -0.12 0.26 -0.26 0.26 l-2.58 0 z M16.26 13.28 c0 0 2.52 0.28 3.4 -0.3 c0.34 -0.22 0.54 -0.76 0.54 -1.16 c-0.02 -0.44 -0.24 -0.9 -0.6 -1.18 c-0.38 -0.32 -1.32 -0.42 -1.8 -0.42 l-1.54 0.04 l0 3.02 z M25.2 20 l0 -11.98 c0 -0.5 0.1 -0.6 0.26 -0.6 l8.76 0 c0.14 0 0.26 0.1 0.26 0.24 l0 2.26 c0 0.14 -0.12 0.26 -0.26 0.26 l-5.92 0 l0 2.08 l3.74 0 c0.14 0 0.26 0.12 0.26 0.26 l0 2.24 c0 0.14 -0.12 0.26 -0.26 0.26 l-3.74 0 l0 2.14 l5.9 0 c0.14 0 0.26 0.12 0.26 0.26 l0 2.24 c0 0.14 -0.12 0.26 -0.26 0.26 l-8.74 0 c-0.16 0 -0.26 -0.12 -0.26 0.08 z M36.74 20 c-0.14 0 -0.26 -0.12 -0.26 -0.26 l0 -11.98 c0 -0.14 0.12 -0.26 0.26 -0.26 l2.36 0 c0.08 0 0.16 0.04 0.22 0.1 l4.6 7.1 l0 -6.94 c0 -0.14 0.12 -0.26 0.26 -0.26 l2.46 0 c0.14 0 0.26 0.12 0.26 0.26 l0 11.98 c0 0.14 -0.12 0.26 -0.26 0.26 l-2.36 0 c-0.08 0 -0.16 -0.04 -0.22 -0.1 l-4.58 -7.06 l0 6.9 c0 0.14 -0.12 0.26 -0.26 0.26 l-2.48 0 z M52.14 20 c-0.14 0 -0.24 -0.12 -0.24 -0.26 l0 -9.44 l-2.74 0 c-0.14 0 -0.26 -0.1 -0.26 -0.24 l0 -2.3 c0 -0.14 0.12 -0.26 0.26 -0.26 l8.58 0 c0.16 0 0.26 0.12 0.26 0.26 l0 2.3 c0 0.14 -0.1 0.24 -0.26 0.24 l-2.74 0 l0 9.44 c0 0.14 -0.12 0.26 -0.26 0.26 l-2.6 0 z"></path>
    </g>
    <g id="SvgjsG7249" featurekey="inlineSymbolFeature-0"
        transform="matrix(0.9737419291598491,0,0,0.9737419291598491,163.49412279848613,-9.932285428052845)"
    >
        <g xmlns="http://www.w3.org/2000/svg">
            <path fill="#ea5455"
                d="M41.165,11.212C27.221,14.36,27.013,29.283,27.013,32.62c0,8.664-3.628,13.863-5.144,15.812   c-1.63,2.096-2.058,3.032-1.739,4.153c0.331,1.162,3.905,0.937,4.067,1.912c0.125,0.749-0.655,1.567-0.361,2.636   c0.199,0.722,1.45,1.363,1.335,1.858c-0.108,0.471-1.028,1.949-0.379,2.707c2.644,3.084,1.68,3.292,1.209,6.265   c-1.119,7.075,9.675,4.62,9.675,4.62c12.708-2.888,13.719,17.474,13.719,17.474h1.901c0,0-1.14-11.66-5.577-16.272   c-4.062-4.225-9.21-3.146-10.731-2.896c-9.206,1.518-7.183-2.719-7.031-3.857c0.343-2.563,0.462-3.761-1.379-6.035   c-0.512-0.631,0.535-1.842,0.228-2.654c-0.307-0.812-1.473-1.003-1.473-1.84c0-1.139,0.85-2.346,0.36-3.122   c-0.65-1.028-3.188-0.981-3.375-2.131c-0.243-1.496,6.385-6.581,6.668-18.711c0.217-9.314,3.224-16.85,12.466-19.449   c8.106-2.278,19.951-0.73,24.692,1.878c6.742,3.706,10.371,8.46,11.408,13.646c1.976,9.868-3.021,19.952-3.826,21.372   c-1.227,2.166-3.307,5.891-4.26,9.097c-2.274,7.653-4.253,8.044-7.419,8.416c-5.96,0.699-6.587-6.285-6.646-7.405h1.112   c0.598,0,1.083-0.485,1.083-1.083v-0.144c0-0.6-0.485-1.084-1.083-1.084h-3.934c-0.599,0-1.084,0.484-1.084,1.084v0.144   c0,0.598,0.485,1.083,1.084,1.083h1.01c1.064,9.672,6.028,9.739,9.233,9.307c3.214-0.433,6.229-3.618,7.132-6.795   c0.506-1.779,2.065-6.926,4.688-10.922c1.517-2.312,4.353-8.412,4.931-14.188C82.61,7.162,50.118,9.19,41.165,11.212z"></path>
            <path fill="#ea5455"
                d="M50.181,57.483h8.737c0.597,0,1.082-0.485,1.082-1.083v-0.146c0-0.598-0.485-1.082-1.082-1.082h-8.737   c-0.598,0-1.083,0.484-1.083,1.082V56.4C49.098,56.998,49.583,57.483,50.181,57.483z"></path>
            <path fill="#"
                d="M49.802,54.838h9.495c0.599,0,1.083-0.484,1.083-1.081v-0.146c0-0.599-0.484-1.082-1.083-1.082h-9.495   c-0.599,0-1.083,0.483-1.083,1.082v0.146C48.719,54.354,49.203,54.838,49.802,54.838z"></path>
            <path fill="#ffd600"
                d="M50.079,49.875h-0.331c-0.599,0-1.083,0.486-1.083,1.083v0.146c0,0.599,0.484,1.083,1.083,1.083h9.604
                c0.598,0,1.083-0.484,1.083-1.083v-0.146c0-0.593-0.479-1.072-1.07-1.08c-0.174-0.906-0.477-2.653-0.526-4.08
                c-0.042-1.174,0.124-1.729,0.884-2.6c1.733-1.986,6.823-6.065,6.787-12.095c-0.039-6.454-5.002-11.737-11.336-12.199V18.87
                c0,0-0.223-0.004-0.433-0.004c-0.224,0-0.451,0-0.471,0v0.004v0.033c-6.333,0.462-11.297,5.745-11.335,12.199
                c-0.036,6.029,5.054,10.109,6.788,12.095c0.76,0.871,0.927,1.426,0.884,2.6c-0.049,1.427-0.352,3.174-0.526,4.08z"
                style="transform: translateY(-1.5px);" />
        </g>
    </g>
    <g id="SvgjsG7250" featurekey="nameRightFeature-0"
        transform="matrix(2.384105749461948,0,0,2.384105749461948,246.67900310600962,9.365568217107285)"
        fill="#ea5455">
        <path
            d="M6.82 4.98 c-0.02 0 -0.18 -0.02 -0.34 -0.02 c-0.28 0 -0.42 0.1 -0.46 0.36 c-0.02 0.14 -0.02 0.3 0.02 0.42 c0.16 0.62 3.26 13.44 3.42 14 c0.06 0.24 0.08 0.24 0.32 0.24 l1.62 0 l0.12 0 c0.26 0 0.28 -0.36 0.34 -0.7 c0.4 -2.06 0.9 -4.1 1.38 -6.08 c0.02 -0.12 0.06 -0.24 0.1 -0.34 c0.02 -0.04 0.06 -0.06 0.08 -0.06 c0.04 0 0.08 0.02 0.1 0.06 c0.1 0.24 1.3 5.92 1.54 6.9 c0.04 0.12 0.1 0.22 0.26 0.22 l1.6 0 c0.3 0 0.5 -0.16 0.56 -0.46 c0.26 -1.32 0.6 -2.8 0.92 -4.1 c0.4 -1.6 0.82 -3.18 1.24 -4.78 c0.32 -1.28 0.66 -2.68 1.06 -3.94 c0.14 -0.42 0.66 -1.68 -0.22 -1.68 c-0.44 0 -0.82 -0.04 -1.26 -0.02 c-0.14 0 -0.28 0 -0.42 0.02 c-0.22 0 -0.38 0.12 -0.46 0.32 c-0.06 0.2 -0.16 0.42 -0.22 0.62 c-0.3 1.28 -0.58 2.74 -0.94 4 c-0.26 0.94 -0.54 1.86 -0.76 2.8 c0 0.02 -0.08 0.32 -0.16 0.32 c-0.14 0 -0.18 -0.22 -0.22 -0.42 c-0.02 -0.08 -1.02 -5.82 -1.16 -6.94 c-0.04 -0.44 -0.18 -0.7 -0.64 -0.72 l-0.24 0 c-0.52 0.04 -0.8 -0.02 -1.32 0.02 c-0.42 0.02 -0.48 0.06 -0.58 0.44 c-0.02 0.08 -0.02 0.18 -0.04 0.28 c-0.16 0.88 -1.2 6.56 -1.34 7.24 c0 0.04 -0.02 0.12 -0.08 0.12 c-0.08 0 -0.1 -0.1 -0.12 -0.14 c-0.02 -0.08 -1.76 -7.42 -1.82 -7.6 c-0.08 -0.24 -0.26 -0.38 -0.54 -0.38 c-0.44 0.02 -0.78 0 -1.34 0 z M23 15.9 l-0.02 0 c0 0.5 -0.02 1.02 0 1.54 c0.02 0.64 0.06 1.28 0.1 1.92 c0 0.22 0.06 0.28 0.26 0.32 c0.42 0.1 0.82 0.12 1.24 0.12 c1.08 -0.04 2.16 0.04 3.24 0 c0.44 -0.02 0.64 0.02 1.08 -0.06 c0.4 -0.08 0.54 -0.3 0.54 -0.9 c-0.04 -0.38 -0.02 -0.54 -0.02 -1 c0 -0.66 -0.46 -0.88 -0.86 -0.86 c-0.28 0.02 -1.62 -0.02 -2.16 -0.02 c-0.9 0.02 -0.76 0.14 -0.76 -0.8 c0 -0.76 0.02 -1.74 0.02 -2.52 c0 -0.42 0.04 -0.56 0.44 -0.56 l2.5 0 c0.4 0.06 0.68 -0.22 0.68 -0.64 s0.04 -0.44 0.04 -0.86 l-0.06 -0.6 c-0.04 -0.34 -0.16 -0.46 -0.5 -0.46 c-0.22 0 -0.44 0.02 -0.66 0.04 c-0.86 0.06 -1.26 -0.06 -2.1 0 c-0.28 0 -0.32 -0.04 -0.34 -0.3 c-0.08 -0.78 0 -1.64 0.08 -2.42 c0.02 -0.32 0.1 -0.38 0.4 -0.4 l2.82 -0.02 c0.38 -0.04 0.5 -0.02 0.48 -0.4 c-0.04 -0.58 0.02 -1.18 -0.04 -1.76 c-0.04 -0.32 -0.14 -0.38 -0.5 -0.38 c-0.6 0.02 -0.74 0.02 -1.34 0.06 c-0.6 0.02 -3 0.02 -3.58 0.02 c-0.84 0 -0.9 -0.06 -0.92 0.96 c-0.04 0.8 -0.02 1.62 -0.02 2.44 c0 1.4 -0.08 6.42 -0.04 7.54 z M31.46 6.54 c0 0.96 -0.04 11.28 0 12.2 c0.02 0.22 0.02 0.44 0.02 0.66 c0 0.16 0.1 0.26 0.24 0.32 c0.12 0.04 0.28 0.08 0.4 0.08 c0.58 -0.06 1.2 0 1.8 -0.02 c1.04 0.08 1.98 -0.16 2.88 -0.64 c0.84 -0.48 1.3 -1.34 1.62 -2.24 c0.26 -0.76 0.22 -1.66 0.08 -2.44 c-0.12 -0.7 -0.44 -1.38 -0.86 -1.94 c-0.06 -0.08 -0.92 -0.62 -0.88 -0.66 c0.52 -0.74 1.26 -1.36 1.36 -2.28 c0.08 -0.8 -0.1 -1.62 -0.38 -2.36 c-0.18 -0.48 -0.42 -0.94 -0.8 -1.3 c-0.64 -0.6 -1.6 -0.86 -2.44 -0.94 c-0.86 -0.08 -1.66 -0.02 -2.52 -0.06 c-0.3 0 -0.44 0.12 -0.44 0.44 c0 0.42 -0.08 0.76 -0.08 1.18 z M33.92 10.18 c-0.02 -0.22 0 -1.98 -0.04 -2.64 c-0.02 -0.24 0.12 -0.36 0.38 -0.3 c0.2 0.04 0.36 0.06 0.52 0.18 c0.5 0.38 0.88 0.84 0.9 1.48 c0 0.32 0 0.64 -0.12 0.94 c-0.14 0.36 -0.34 0.64 -0.7 0.82 c-0.24 0.12 -0.46 0.26 -0.7 0.36 c-0.12 0.04 -0.24 -0.02 -0.26 -0.14 c0 -0.24 0.02 -0.7 0.02 -0.7 z M35.92 15.48 c0 0.1 -0.02 0.28 -0.02 0.46 c-0.02 0.6 -0.8 1.36 -1.7 1.38 c-0.06 0 -0.16 -0.06 -0.18 -0.12 c-0.04 -0.12 -0.08 -0.26 -0.08 -0.4 c-0.02 -0.62 0 -1.22 0 -1.88 c0.06 -0.42 0.02 -0.86 0.02 -1.3 c0.02 -0.34 0.1 -0.4 0.42 -0.46 c0.48 -0.06 0.92 0.14 1.14 0.52 c0.26 0.46 0.36 0.96 0.4 1.48 l0 0.32 z"></path>
    </g>
</svg>